<svg width="15" height="15" viewBox="0 0 15 15" fill="none" xmlns="http://www.w3.org/2000/svg">
<path fill-rule="evenodd" clip-rule="evenodd" d="M3.96974 5.46969C4.11039 5.32909 4.30112 5.2501 4.49999 5.2501C4.69887 5.2501 4.8896 5.32909 5.03024 5.46969L7.49999 7.93944L9.96974 5.46969C10.0389 5.39806 10.1217 5.34092 10.2132 5.30161C10.3047 5.26231 10.4031 5.24162 10.5027 5.24075C10.6023 5.23989 10.701 5.25886 10.7932 5.29657C10.8854 5.33428 10.9691 5.38997 11.0395 5.46039C11.11 5.53081 11.1656 5.61455 11.2034 5.70672C11.2411 5.7989 11.26 5.89766 11.2592 5.99724C11.2583 6.09682 11.2376 6.19524 11.1983 6.28674C11.159 6.37825 11.1019 6.461 11.0302 6.53019L8.03024 9.53019C7.8896 9.67079 7.69887 9.74978 7.49999 9.74978C7.30112 9.74978 7.11039 9.67079 6.96974 9.53019L3.96974 6.53019C3.82914 6.38954 3.75015 6.19881 3.75015 5.99994C3.75015 5.80107 3.82914 5.61033 3.96974 5.46969Z" fill="black"/>
</svg>
