<svg width="35" height="35" viewBox="0 0 35 35" fill="none" xmlns="http://www.w3.org/2000/svg">
<circle cx="17.5" cy="17.5" r="17" stroke="white" stroke-opacity="0.7"/>
<path fill-rule="evenodd" clip-rule="evenodd" d="M13.3 8.39999C13.0215 8.39999 12.7544 8.51062 12.5575 8.70753C12.3606 8.90444 12.25 9.17152 12.25 9.44999V10.5H11.2C10.643 10.5 10.1089 10.7212 9.71505 11.1151C9.32122 11.5089 9.09998 12.043 9.09998 12.6V23.1C9.09998 23.6569 9.32122 24.1911 9.71505 24.5849C10.1089 24.9787 10.643 25.2 11.2 25.2H23.8C24.3569 25.2 24.8911 24.9787 25.2849 24.5849C25.6787 24.1911 25.9 23.6569 25.9 23.1V12.6C25.9 12.043 25.6787 11.5089 25.2849 11.1151C24.8911 10.7212 24.3569 10.5 23.8 10.5H22.75V9.44999C22.75 9.17152 22.6393 8.90444 22.4424 8.70753C22.2455 8.51062 21.9785 8.39999 21.7 8.39999C21.4215 8.39999 21.1544 8.51062 20.9575 8.70753C20.7606 8.90444 20.65 9.17152 20.65 9.44999V10.5H14.35V9.44999C14.35 9.17152 14.2394 8.90444 14.0424 8.70753C13.8455 8.51062 13.5785 8.39999 13.3 8.39999ZM13.3 13.65C13.0215 13.65 12.7544 13.7606 12.5575 13.9575C12.3606 14.1544 12.25 14.4215 12.25 14.7C12.25 14.9785 12.3606 15.2455 12.5575 15.4425C12.7544 15.6394 13.0215 15.75 13.3 15.75H21.7C21.9785 15.75 22.2455 15.6394 22.4424 15.4425C22.6393 15.2455 22.75 14.9785 22.75 14.7C22.75 14.4215 22.6393 14.1544 22.4424 13.9575C22.2455 13.7606 21.9785 13.65 21.7 13.65H13.3Z" fill="white"/>
</svg>
