<svg width="30" height="30" viewBox="0 0 30 30" fill="none" xmlns="http://www.w3.org/2000/svg">
<path fill-rule="evenodd" clip-rule="evenodd" d="M7.5 0C7.00272 0 6.52581 0.197544 6.17418 0.549175C5.82254 0.900805 5.625 1.37772 5.625 1.875V3.75H3.75C2.75544 3.75 1.80161 4.14509 1.09835 4.84835C0.395088 5.55161 0 6.50544 0 7.5V26.25C0 27.2446 0.395088 28.1984 1.09835 28.9016C1.80161 29.6049 2.75544 30 3.75 30H26.25C27.2446 30 28.1984 29.6049 28.9016 28.9016C29.6049 28.1984 30 27.2446 30 26.25V7.5C30 6.50544 29.6049 5.55161 28.9016 4.84835C28.1984 4.14509 27.2446 3.75 26.25 3.75H24.375V1.875C24.375 1.37772 24.1775 0.900805 23.8258 0.549175C23.4742 0.197544 22.9973 0 22.5 0C22.0027 0 21.5258 0.197544 21.1742 0.549175C20.8225 0.900805 20.625 1.37772 20.625 1.875V3.75H9.375V1.875C9.375 1.37772 9.17746 0.900805 8.82582 0.549175C8.47419 0.197544 7.99728 0 7.5 0ZM7.5 9.375C7.00272 9.375 6.52581 9.57254 6.17418 9.92418C5.82254 10.2758 5.625 10.7527 5.625 11.25C5.625 11.7473 5.82254 12.2242 6.17418 12.5758C6.52581 12.9275 7.00272 13.125 7.5 13.125H22.5C22.9973 13.125 23.4742 12.9275 23.8258 12.5758C24.1775 12.2242 24.375 11.7473 24.375 11.25C24.375 10.7527 24.1775 10.2758 23.8258 9.92418C23.4742 9.57254 22.9973 9.375 22.5 9.375H7.5Z" fill="#121212" fill-opacity="0.2"/>
</svg>
