<svg width="37" height="37" viewBox="0 0 37 37" fill="none" xmlns="http://www.w3.org/2000/svg">
<path d="M28 18.0547C28 13.0845 23.9702 9.05475 19 9.05475C14.0298 9.05475 10 13.0845 10 18.0547C10 22.5472 13.291 26.2702 17.5938 26.9452V20.6565H15.3085V18.054H17.5938V16.0725C17.5938 13.8172 18.9378 12.5707 20.9935 12.5707C21.9775 12.5707 23.008 12.747 23.008 12.747V14.9617H21.8725C20.7542 14.9617 20.4055 15.6555 20.4055 16.3672V18.0547H22.9015L22.5025 20.6572H20.4055V26.946C24.709 26.2702 28 22.5465 28 18.0547Z" fill="white" fill-opacity="0.9"/>
<circle cx="18.5" cy="18.5" r="18" stroke="white" stroke-opacity="0.5"/>
</svg>
