<svg width="13" height="13" viewBox="0 0 13 13" fill="none" xmlns="http://www.w3.org/2000/svg">
<path d="M6.5 0C4.73417 0 4.51371 0.008125 3.82038 0.039C3.12813 0.0715 2.65688 0.180375 2.2425 0.34125C1.81512 0.507 1.45221 0.729625 1.09092 1.09092C0.729625 1.45221 0.506458 1.81458 0.34125 2.2425C0.180375 2.65688 0.0709583 3.12813 0.039 3.82038C0.0065 4.51371 0 4.73417 0 6.5C0 8.26583 0.008125 8.48629 0.039 9.17963C0.0715 9.87133 0.180375 10.3431 0.34125 10.7575C0.507 11.1843 0.729625 11.5478 1.09092 11.9091C1.45221 12.2698 1.81458 12.4935 2.2425 12.6588C2.65742 12.8191 3.12867 12.929 3.82038 12.961C4.51371 12.9935 4.73417 13 6.5 13C8.26583 13 8.48629 12.9919 9.17963 12.961C9.87133 12.9285 10.3431 12.8191 10.7575 12.6588C11.1843 12.493 11.5478 12.2698 11.9091 11.9091C12.2698 11.5478 12.4935 11.186 12.6588 10.7575C12.8191 10.3431 12.929 9.87133 12.961 9.17963C12.9935 8.48629 13 8.26583 13 6.5C13 4.73417 12.9919 4.51371 12.961 3.82038C12.9285 3.12867 12.8191 2.65633 12.6588 2.2425C12.493 1.81512 12.2698 1.45221 11.9091 1.09092C11.5478 0.729625 11.186 0.506458 10.7575 0.34125C10.3431 0.180375 9.87133 0.0709583 9.17963 0.039C8.48629 0.0065 8.26583 0 6.5 0ZM6.5 1.17C8.23496 1.17 8.44188 1.17867 9.12708 1.20846C9.76083 1.23825 10.1048 1.34333 10.3334 1.43325C10.6378 1.55079 10.8534 1.69163 11.082 1.91858C11.3089 2.14608 11.4497 2.36221 11.5673 2.66663C11.6561 2.89521 11.7623 3.23917 11.791 3.87292C11.8219 4.55867 11.8289 4.7645 11.8289 6.5C11.8289 8.2355 11.8208 8.44188 11.7888 9.12708C11.7558 9.76083 11.6502 10.1048 11.5608 10.3334C11.4395 10.6378 11.3013 10.8534 11.0738 11.082C10.8469 11.3089 10.6275 11.4497 10.3263 11.5673C10.0988 11.6561 9.74946 11.7623 9.11571 11.791C8.42563 11.8219 8.2225 11.8289 6.48375 11.8289C4.74446 11.8289 4.54133 11.8208 3.85179 11.7888C3.2175 11.7558 2.86813 11.6502 2.64062 11.5608C2.33242 11.4395 2.12063 11.3013 1.89367 11.0738C1.66563 10.8469 1.51992 10.6275 1.40617 10.3263C1.31679 10.0988 1.21171 9.74946 1.17867 9.11571C1.15429 8.43321 1.14562 8.2225 1.14562 6.49188C1.14562 4.76071 1.15429 4.54946 1.17867 3.85883C1.21171 3.22508 1.31679 2.87625 1.40617 2.64875C1.51992 2.34 1.66563 2.12875 1.89367 1.90071C2.12063 1.67375 2.33242 1.5275 2.64062 1.41429C2.86813 1.32438 3.20992 1.21875 3.84367 1.18625C4.53429 1.16188 4.73742 1.15375 6.47563 1.15375L6.5 1.17ZM6.5 3.16225C4.65563 3.16225 3.16225 4.65725 3.16225 6.5C3.16225 8.34438 4.65725 9.83775 6.5 9.83775C8.34438 9.83775 9.83775 8.34275 9.83775 6.5C9.83775 4.65563 8.34275 3.16225 6.5 3.16225ZM6.5 8.66667C5.30292 8.66667 4.33333 7.69708 4.33333 6.5C4.33333 5.30292 5.30292 4.33333 6.5 4.33333C7.69708 4.33333 8.66667 5.30292 8.66667 6.5C8.66667 7.69708 7.69708 8.66667 6.5 8.66667ZM10.7499 3.03063C10.7499 3.46125 10.4 3.81063 9.96992 3.81063C9.53929 3.81063 9.18992 3.46071 9.18992 3.03063C9.18992 2.60054 9.53983 2.25117 9.96992 2.25117C10.3995 2.25063 10.7499 2.60054 10.7499 3.03063Z" fill="black"/>
</svg>
