<svg width="50" height="50" viewBox="0 0 50 50" fill="none" xmlns="http://www.w3.org/2000/svg">
<circle cx="25" cy="25" r="24" transform="rotate(-180 25 25)" stroke="white" stroke-opacity="0.7" stroke-width="2"/>
<path fill-rule="evenodd" clip-rule="evenodd" d="M21.7898 29.7072C21.5273 29.8947 21.1712 30 20.8 30C20.4288 30 20.0728 29.8947 19.8102 29.7072L14.2102 25.7072C13.9478 25.5197 13.8003 25.2654 13.8003 25.0002C13.8003 24.735 13.9478 24.4807 14.2102 24.2932L19.8102 20.2932C20.0743 20.1111 20.4279 20.0103 20.795 20.0125C21.162 20.0148 21.5132 20.12 21.7728 20.3054C22.0323 20.4908 22.1796 20.7416 22.1828 21.0038C22.1859 21.266 22.0448 21.5186 21.7898 21.7072L18.5796 24.0002H34.8C35.1713 24.0002 35.5274 24.1056 35.79 24.2931C36.0525 24.4806 36.2 24.735 36.2 25.0002C36.2 25.2654 36.0525 25.5198 35.79 25.7073C35.5274 25.8949 35.1713 26.0002 34.8 26.0002L18.5796 26.0002L21.7898 28.2932C22.0523 28.4807 22.1997 28.735 22.1997 29.0002C22.1997 29.2654 22.0523 29.5197 21.7898 29.7072V29.7072Z" fill="white"/>
</svg>
