<svg width="13" height="13" viewBox="0 0 13 13" fill="none" xmlns="http://www.w3.org/2000/svg">
<path d="M11.0755 11.0782H9.15038V8.06163C9.15038 7.34229 9.13575 6.41658 8.14721 6.41658C7.1435 6.41658 6.99021 7.19929 6.99021 8.00854V11.0782H5.06512V4.875H6.91438V5.72054H6.93929C7.19767 5.23304 7.826 4.71846 8.76471 4.71846C10.7153 4.71846 11.076 6.00221 11.076 7.67325V11.0782H11.0755ZM2.89088 4.02621C2.27121 4.02621 1.77342 3.52463 1.77342 2.90767C1.77342 2.29125 2.27175 1.79021 2.89088 1.79021C3.50838 1.79021 4.00888 2.29125 4.00888 2.90767C4.00888 3.52463 3.50783 4.02621 2.89088 4.02621ZM3.85613 11.0782H1.92563V4.875H3.85613V11.0782ZM12.0385 0H0.959292C0.429 0 0 0.41925 0 0.936542V12.0635C0 12.5813 0.429 13 0.959292 13H12.0369C12.5667 13 13 12.5813 13 12.0635V0.936542C13 0.41925 12.5667 0 12.0369 0H12.0385Z" fill="black"/>
</svg>
