<svg width="37" height="37" viewBox="0 0 37 37" fill="none" xmlns="http://www.w3.org/2000/svg">
<path d="M25.3353 24.339H22.6697V20.1623C22.6697 19.1663 22.6495 17.8845 21.2808 17.8845C19.891 17.8845 19.6787 18.9682 19.6787 20.0887V24.339H17.0132V15.75H19.5738V16.9207H19.6082C19.966 16.2457 20.836 15.5333 22.1357 15.5333C24.8365 15.5333 25.336 17.3108 25.336 19.6245V24.339H25.3353ZM14.0027 14.5748C13.1447 14.5748 12.4555 13.8803 12.4555 13.026C12.4555 12.1725 13.1455 11.4788 14.0027 11.4788C14.8577 11.4788 15.5508 12.1725 15.5508 13.026C15.5508 13.8803 14.857 14.5748 14.0027 14.5748ZM15.3392 24.339H12.6663V15.75H15.3392V24.339ZM26.6688 9H11.3283C10.594 9 10 9.5805 10 10.2967V25.7032C10 26.4202 10.594 27 11.3283 27H26.6665C27.4 27 28 26.4202 28 25.7032V10.2967C28 9.5805 27.4 9 26.6665 9H26.6688Z" fill="white" fill-opacity="0.9"/>
<circle cx="18.5" cy="18.5" r="18" stroke="white" stroke-opacity="0.5"/>
</svg>
