<svg width="35" height="35" viewBox="0 0 35 35" fill="none" xmlns="http://www.w3.org/2000/svg">
<circle cx="17.5" cy="17.5" r="17" stroke="white" stroke-opacity="0.7"/>
<path d="M9.10303 13.1782L17.4999 17.3761L25.8967 13.1782C25.8656 12.6432 25.6312 12.1403 25.2413 11.7725C24.8515 11.4047 24.3358 11.1999 23.7999 11.2H11.1999C10.6639 11.1999 10.1482 11.4047 9.75841 11.7725C9.36858 12.1403 9.13411 12.6432 9.10303 13.1782Z" fill="white"/>
<path d="M25.9001 15.5239L17.5001 19.7239L9.1001 15.5239V21.7C9.1001 22.257 9.32135 22.7911 9.71517 23.1849C10.109 23.5787 10.6431 23.8 11.2001 23.8H23.8001C24.3571 23.8 24.8912 23.5787 25.285 23.1849C25.6788 22.7911 25.9001 22.257 25.9001 21.7V15.5239Z" fill="white"/>
</svg>
