<svg width="25" height="28" viewBox="0 0 25 28" fill="none" xmlns="http://www.w3.org/2000/svg">
<path fill-rule="evenodd" clip-rule="evenodd" d="M12.5 27.2144C15.8152 27.2144 18.9946 25.792 21.3388 23.2603C23.683 20.7286 25 17.2948 25 13.7144C25 10.1339 23.683 6.70016 21.3388 4.16841C18.9946 1.63667 15.8152 0.214355 12.5 0.214355C9.18479 0.214355 6.00537 1.63667 3.66117 4.16841C1.31696 6.70016 0 10.1339 0 13.7144C0 17.2948 1.31696 20.7286 3.66117 23.2603C6.00537 25.792 9.18479 27.2144 12.5 27.2144ZM11.8047 8.93536C11.5694 8.7658 11.2959 8.66841 11.0133 8.65359C10.7308 8.63877 10.4498 8.70706 10.2004 8.85119C9.95094 8.99532 9.74243 9.20988 9.59707 9.47196C9.45171 9.73405 9.37496 10.0338 9.375 10.3394V17.0894C9.37496 17.3949 9.45171 17.6947 9.59707 17.9567C9.74243 18.2188 9.95094 18.4334 10.2004 18.5775C10.4498 18.7216 10.7308 18.7899 11.0133 18.7751C11.2959 18.7603 11.5694 18.6629 11.8047 18.4934L16.4922 15.1184C16.7062 14.9642 16.8816 14.7555 17.003 14.5105C17.1244 14.2656 17.1879 13.9921 17.1879 13.7144C17.1879 13.4366 17.1244 13.1631 17.003 12.9182C16.8816 12.6732 16.7062 12.4645 16.4922 12.3104L11.8047 8.93536Z" fill="black" fill-opacity="0.5"/>
</svg>
