<svg width="50" height="50" viewBox="0 0 50 50" fill="none" xmlns="http://www.w3.org/2000/svg">
<circle cx="25" cy="25" r="24" stroke="white" stroke-opacity="0.7" stroke-width="2"/>
<path fill-rule="evenodd" clip-rule="evenodd" d="M28.2102 20.2928C28.4727 20.1053 28.8288 20 29.2 20C29.5712 20 29.9272 20.1053 30.1898 20.2928L35.7898 24.2928C36.0522 24.4803 36.1997 24.7346 36.1997 24.9998C36.1997 25.265 36.0522 25.5193 35.7898 25.7068L30.1898 29.7068C29.9257 29.8889 29.5721 29.9897 29.205 29.9875C28.838 29.9852 28.4868 29.88 28.2272 29.6946C27.9677 29.5092 27.8204 29.2584 27.8172 28.9962C27.8141 28.734 27.9552 28.4814 28.2102 28.2928L31.4204 25.9998H15.2C14.8287 25.9998 14.4726 25.8944 14.21 25.7069C13.9475 25.5194 13.8 25.265 13.8 24.9998C13.8 24.7346 13.9475 24.4802 14.21 24.2927C14.4726 24.1051 14.8287 23.9998 15.2 23.9998H31.4204L28.2102 21.7068C27.9477 21.5193 27.8003 21.265 27.8003 20.9998C27.8003 20.7346 27.9477 20.4803 28.2102 20.2928Z" fill="white"/>
</svg>
