<svg width="35" height="35" viewBox="0 0 35 35" fill="none" xmlns="http://www.w3.org/2000/svg">
<path d="M9.09998 10.15C9.09998 9.87153 9.2106 9.60446 9.40751 9.40754C9.60443 9.21063 9.8715 9.10001 10.15 9.10001H12.4106C12.6592 9.10012 12.8996 9.1884 13.0892 9.34913C13.2788 9.50986 13.4052 9.73263 13.4459 9.97781L14.2229 14.6346C14.2601 14.8563 14.225 15.0842 14.1229 15.2845C14.0209 15.4849 13.8572 15.6472 13.6559 15.7476L12.0305 16.5592C12.6134 18.0036 13.4815 19.3158 14.5828 20.4171C15.6842 21.5185 16.9963 22.3866 18.4408 22.9695L19.2535 21.3441C19.3538 21.143 19.5159 20.9795 19.7161 20.8774C19.9162 20.7753 20.1438 20.7402 20.3654 20.7771L25.0222 21.5541C25.2674 21.5948 25.4901 21.7212 25.6509 21.9108C25.8116 22.1004 25.8999 22.3408 25.9 22.5894V24.85C25.9 25.1285 25.7894 25.3956 25.5924 25.5925C25.3955 25.7894 25.1285 25.9 24.85 25.9H22.75C15.211 25.9 9.09998 19.789 9.09998 12.25V10.15Z" fill="white"/>
<circle cx="17.5" cy="17.5" r="17" stroke="white" stroke-opacity="0.7"/>
</svg>
