<svg width="13" height="13" viewBox="0 0 13 13" fill="none" xmlns="http://www.w3.org/2000/svg">
<path d="M12.9745 2.47548C12.4878 2.68977 11.9722 2.83122 11.4443 2.89528C12.0001 2.5612 12.4163 2.0373 12.616 1.42032C12.1008 1.72094 11.5299 1.93978 10.9222 2.06165C10.5212 1.63288 9.98989 1.3485 9.41072 1.25267C8.83156 1.15684 8.23696 1.25492 7.71926 1.53168C7.20155 1.80844 6.78972 2.24839 6.5477 2.78322C6.30568 3.31805 6.24702 3.91782 6.38083 4.4894C4.16542 4.38486 2.20296 3.32048 0.888333 1.71282C0.649347 2.11897 0.524693 2.58221 0.527583 3.05344C0.527583 3.97969 0.998833 4.79382 1.71275 5.27211C1.28963 5.25864 0.87586 5.14424 0.505917 4.93844V4.97094C0.505677 5.58649 0.718395 6.18316 1.10798 6.65973C1.49757 7.1363 2.04003 7.46341 2.64333 7.58557C2.25241 7.69032 1.84297 7.70605 1.44517 7.63161C1.6164 8.16136 1.94873 8.62445 2.3958 8.95625C2.84286 9.28806 3.38236 9.47202 3.939 9.48248C2.99624 10.2224 1.83217 10.6239 0.63375 10.6227C0.4225 10.6227 0.211792 10.6102 0 10.5864C1.22184 11.3687 2.64253 11.784 4.09338 11.7829C8.99708 11.7829 11.6756 7.72261 11.6756 4.20773C11.6756 4.09398 11.6756 3.98023 11.6675 3.86648C12.1907 3.48995 12.6421 3.02247 13 2.48632L12.9745 2.47548Z" fill="black"/>
</svg>
