<svg width="13" height="13" viewBox="0 0 13 13" fill="none" xmlns="http://www.w3.org/2000/svg">
<g clip-path="url(#clip0_190:133)">
<path d="M9.4634 7.79027C9.30252 7.70956 8.51115 7.32065 8.36381 7.26648C8.21594 7.21286 8.10869 7.18631 8.0009 7.34773C7.89419 7.50861 7.58544 7.87098 7.49173 7.97823C7.39802 8.08602 7.30377 8.09902 7.1429 8.01886C6.98202 7.93761 6.46311 7.76806 5.84831 7.2199C5.37002 6.79306 5.04665 6.26602 4.95294 6.10461C4.85923 5.94373 4.94319 5.85652 5.02336 5.77636C5.09594 5.70431 5.18477 5.5884 5.26494 5.49469C5.34565 5.40044 5.37219 5.33327 5.42636 5.22548C5.47998 5.11823 5.45344 5.02452 5.41281 4.94381C5.37219 4.86311 5.05044 4.07065 4.91665 3.74836C4.78556 3.43473 4.65286 3.47752 4.55427 3.47211C4.46056 3.46777 4.35331 3.46669 4.24552 3.46669C4.13827 3.46669 3.96386 3.50677 3.81652 3.66819C3.66919 3.82906 3.25319 4.21852 3.25319 5.01098C3.25319 5.8029 3.83006 6.56827 3.91023 6.67606C3.99094 6.78331 5.04556 8.4094 6.66027 9.10652C7.04431 9.27227 7.34386 9.3714 7.57786 9.44506C7.96352 9.56802 8.31452 9.55069 8.59131 9.50898C8.90061 9.46294 9.54356 9.11952 9.6779 8.74361C9.81223 8.36769 9.81223 8.0454 9.77161 7.97823C9.73152 7.91106 9.62427 7.87098 9.46286 7.79027H9.4634ZM6.52648 11.8002H6.52431C5.56544 11.8003 4.62419 11.5425 3.79919 11.0538L3.60365 10.9379L1.57727 11.4698L2.11786 9.49381L1.99056 9.29123C1.45455 8.43771 1.17099 7.44994 1.17265 6.44206C1.17319 3.48998 3.57548 1.08823 6.52865 1.08823C7.95865 1.08823 9.30306 1.64615 10.3138 2.65798C10.8125 3.15448 11.2078 3.74496 11.4768 4.39524C11.7458 5.04552 11.8831 5.74269 11.8809 6.4464C11.8792 9.39848 9.47748 11.8002 6.52648 11.8002ZM11.0835 1.88936C10.4867 1.28861 9.7766 0.812271 8.99436 0.487956C8.21212 0.16364 7.37329 -0.00220797 6.52648 2.21962e-05C2.97586 2.21962e-05 0.0860651 2.88981 0.0844401 6.44152C0.0844401 7.57686 0.380732 8.68511 0.944607 9.66173L0.0302734 13L3.44548 12.1041C4.38993 12.6186 5.44826 12.8883 6.52377 12.8884H6.52648C10.0766 12.8884 12.9669 9.99865 12.9685 6.4464C12.9711 5.59992 12.8059 4.76133 12.4823 3.97912C12.1588 3.19692 11.6833 2.48664 11.0835 1.88936Z" fill="black"/>
</g>
<defs>
<clipPath id="clip0_190:133">
<rect width="13" height="13" fill="white"/>
</clipPath>
</defs>
</svg>
