<svg width="37" height="37" viewBox="0 0 37 37" fill="none" xmlns="http://www.w3.org/2000/svg">
<path d="M27.6235 13.6395C27.5218 13.2565 27.3213 12.9069 27.042 12.6257C26.7626 12.3445 26.4144 12.1417 26.032 12.0375C24.6287 11.6588 19 11.6588 19 11.6588C19 11.6588 13.3712 11.6588 11.9672 12.0375C11.5851 12.1419 11.237 12.3448 10.9578 12.6259C10.6786 12.9071 10.4782 13.2566 10.3765 13.6395C10 15.0525 10 18 10 18C10 18 10 20.9475 10.3765 22.3605C10.4782 22.7435 10.6787 23.0931 10.958 23.3743C11.2374 23.6555 11.5856 23.8583 11.968 23.9625C13.3713 24.3413 19 24.3413 19 24.3413C19 24.3413 24.6288 24.3413 26.0328 23.9625C26.4152 23.8584 26.7635 23.6556 27.0428 23.3744C27.3221 23.0932 27.5226 22.7436 27.6243 22.3605C28 20.9475 28 18 28 18C28 18 28 15.0525 27.6235 13.6395ZM17.1588 20.676V15.324L21.8635 18L17.1588 20.676Z" fill="white" fill-opacity="0.9"/>
<circle cx="18.5" cy="18.5" r="18" stroke="white" stroke-opacity="0.5"/>
</svg>
